<svg version="1.2" baseProfile="tiny-ps" xmlns="http://www.w3.org/2000/svg" viewBox="0 0 4032 1000" width="4032" height="1000">
	<title>image</title>
	<style>
		tspan { white-space:pre }
		.shp0 { fill: #ffffff } 
	</style>
	<path id="Path 0" class="shp0" d="M3642 392C3636.78 392.46 3603.47 393.31 3568 393.89C3532.53 394.47 3497.43 395.19 3490 395.48C3482.57 395.78 3450.18 396.48 3418 397.02C3385.82 397.57 3329.13 398.69 3292 399.51C3254.88 400.33 3193.68 401.67 3156 402.49C3118.32 403.31 3065.22 404.45 3038 405.02C3010.78 405.6 2974.1 406.52 2956.5 407.07C2938.9 407.62 2890.97 408.47 2850 408.98C2809.03 409.48 2757.5 410.37 2735.5 410.96C2713.5 411.55 2691.68 412.49 2687 413.05C2682.32 413.62 2669.72 414.49 2659 414.99C2648.28 415.49 2631.85 416.59 2622.5 417.43C2613.15 418.28 2596.95 419.31 2586.5 419.73C2576.05 420.16 2561.43 420.48 2554 420.46C2541.22 420.43 2540.06 420.26 2532.25 417.21C2525.52 414.59 2522.57 414 2516.25 413.98C2510.06 413.97 2506.34 414.67 2497.75 417.48C2490.56 419.83 2485.09 421 2481.25 421.01C2477.56 421.02 2472.1 419.93 2466 417.98C2460.78 416.31 2453.35 414.67 2449.5 414.35C2443.13 413.81 2441.51 414.11 2431.5 417.61C2422.71 420.69 2419.1 421.46 2413.5 421.44C2407.66 421.42 2405.01 420.78 2397.5 417.6C2389.03 414 2388.06 413.81 2381 414.32C2376.15 414.68 2369.79 416.16 2363 418.51C2353.92 421.67 2351.56 422.11 2345.5 421.77C2340.59 421.5 2336.19 420.43 2330.75 418.19C2324.29 415.53 2321.71 415 2315.25 415.02C2309.45 415.04 2305.74 415.69 2300.5 417.61C2296.65 419.03 2291.03 420.81 2288 421.57C2284.08 422.55 2280.92 422.7 2277 422.08C2273.97 421.6 2268.57 419.97 2265 418.44C2260.13 416.37 2256.37 415.56 2250 415.24C2242.23 414.85 2240.81 415.09 2233.5 418.02C2227.47 420.43 2223.4 421.35 2217 421.73C2209.14 422.19 2207.71 421.96 2198 418.6C2190.31 415.95 2185.89 414.99 2181.5 415.02C2177.16 415.06 2173.42 415.92 2168 418.16C2161.87 420.68 2158.68 421.33 2150.5 421.73C2140.85 422.19 2140.18 422.09 2131.25 418.61C2124.11 415.82 2120.57 415 2115.75 415.01C2111.15 415.02 2106.72 416 2099 418.7C2090.34 421.72 2087.27 422.34 2081.5 422.19C2076.37 422.07 2071.69 421.05 2064 418.38C2054.74 415.18 2052.67 414.81 2046.5 415.23C2042.1 415.53 2037.18 416.69 2033.25 418.36C2029.81 419.81 2023.63 421.45 2019.5 422C2012.18 422.98 2011.71 422.9 2000 419C1991.15 416.05 1986.36 415 1981.75 414.99C1976.89 414.98 1973.61 415.76 1967 418.47C1959.54 421.54 1957.43 421.97 1949.75 421.98C1942.24 422 1939.9 421.56 1933.25 418.87C1927.91 416.72 1923.17 415.58 1918 415.24C1911.24 414.78 1909.47 415.09 1900 418.37C1892.12 421.1 1887.75 422.04 1882.5 422.13C1876.61 422.23 1873.99 421.65 1866 418.51C1858.19 415.43 1855.26 414.77 1849.5 414.79C1844.03 414.81 1840.32 415.6 1832.5 418.4C1827 420.38 1820.7 422.04 1818.5 422.09C1816.3 422.15 1811.91 421.7 1808.75 421.1C1805.59 420.49 1800.19 418.87 1796.75 417.49C1791.82 415.5 1788.76 414.97 1782.25 414.99C1775.35 415 1772.74 415.51 1766.25 418.13C1761.17 420.18 1756.09 421.43 1751.5 421.76C1745.24 422.2 1743.33 421.84 1733.5 418.41C1724.59 415.29 1721.08 414.56 1715 414.53C1708.7 414.5 1706.14 415.06 1699 417.97C1691.62 420.98 1689.38 421.43 1682 421.44C1674.67 421.45 1672.43 421.01 1665.75 418.23C1658.93 415.39 1656.89 415 1648.75 414.99C1640.79 414.98 1638.32 415.42 1631 418.16C1624.09 420.75 1621.01 421.35 1614.5 421.36C1607.49 421.38 1605.41 420.93 1597.75 417.69C1590.59 414.67 1587.78 414 1582.25 413.99C1577.17 413.99 1573.27 414.78 1566.5 417.2C1558.79 419.95 1556.21 420.41 1548.5 420.35C1540.65 420.28 1538.22 419.8 1529.5 416.54C1520.61 413.22 1518.78 412.86 1513 413.33C1509.42 413.62 1502.67 415.26 1498 416.97C1490.99 419.55 1487.93 420.11 1480.5 420.19C1472.45 420.29 1470.47 419.91 1461.75 416.65C1455.04 414.14 1450.36 413 1446.75 413.01C1443.35 413.02 1437.98 414.25 1431.5 416.51C1424.34 419.01 1419.8 420 1415.5 419.99C1412.2 419.99 1404.1 418.86 1397.5 417.49C1389.72 415.87 1382.25 415 1376.25 415C1368.65 415 1365.93 415.45 1361 417.5C1356.33 419.44 1353.28 420 1347.25 419.98C1342.99 419.97 1335.9 419.32 1331.5 418.54C1327.1 417.76 1313.15 416.65 1300.5 416.07C1287.85 415.49 1261.75 414.57 1242.5 414.02C1223.25 413.47 1188.38 412.56 1165 412C1141.63 411.44 1095.5 410.52 1062.5 409.95C1029.5 409.39 982.02 408.51 957 408C931.98 407.48 884.5 406.6 851.5 406.04C818.5 405.48 767.88 404.54 739 403.94C710.13 403.35 655.67 402.22 618 401.44C580.33 400.66 539.38 399.83 527 399.59C514.63 399.36 475.02 398.74 439 398.21C402.98 397.68 363.6 396.97 351.5 396.62C339.4 396.28 308.8 395.5 283.5 394.89C249.45 394.06 234.12 394.06 224.5 394.9C217.35 395.52 207.68 396.93 203 398.03C198.32 399.14 188.43 402.1 181 404.63C173.57 407.15 162.32 411.83 156 415.04C149.68 418.24 143.26 422.02 141.75 423.43C140.24 424.84 138.66 425.99 138.25 425.98C137.84 425.97 134.04 428.33 129.8 431.23C125.57 434.13 118.88 439.43 114.94 443C110.99 446.57 104.16 453.55 99.76 458.5C95.35 463.45 88.69 471.77 84.96 477C81.22 482.23 74.77 492.8 70.61 500.5C65.48 510.01 61.79 518.51 59.09 527C56.9 533.88 54.21 543.33 53.1 548C51.99 552.67 50.62 563.7 50.05 572.5C49.48 581.3 48.84 591.88 48.62 596C48.35 601.14 48.67 604.29 49.61 606C50.37 607.38 51 610.52 51.01 613C51.02 615.48 51.91 621.77 53 627C54.08 632.23 56.58 641.45 58.55 647.5C60.52 653.55 65.17 664.8 68.88 672.5C72.58 680.2 77.65 689.65 80.13 693.5C82.61 697.35 87.53 703.88 91.07 708C94.61 712.13 102.04 720 107.58 725.5C113.13 731 121.9 738.52 127.08 742.21C132.26 745.9 140.55 751.18 145.5 753.93C150.45 756.69 159 760.7 164.5 762.85C170 765 179.22 768.23 185 770.02C190.78 771.82 198.43 773.92 202 774.69C205.57 775.46 210.75 776.47 213.5 776.93C216.25 777.4 220.3 778.26 222.5 778.85C224.81 779.46 232.43 779.76 240.5 779.55C248.2 779.35 261.02 778.23 269 777.05C276.98 775.88 288.45 773.64 294.5 772.08C300.55 770.51 308.65 768 312.5 766.49C316.35 764.98 324.45 761.22 330.5 758.14C336.55 755.06 344.65 750.47 348.5 747.94C352.35 745.41 359.08 740.45 363.45 736.92C367.82 733.39 374.79 727.13 378.95 723C383.11 718.88 389.44 711.88 393.01 707.46C396.58 703.04 403.77 693.17 409 685.53C414.23 677.88 421.88 667.79 426 663.1C430.13 658.42 436.88 651.72 441 648.22C445.13 644.71 450.98 640.21 454 638.21C457.02 636.21 463.55 632.44 468.5 629.84C473.45 627.23 480.43 624 484 622.66C487.57 621.32 495.23 619.05 501 617.62C506.77 616.2 516.23 614.59 522 614.06C528.7 613.44 550.6 613.42 582.5 614C610 614.51 648.92 615.16 669 615.47C689.08 615.77 731.38 616.44 763 616.96C794.63 617.49 834.67 618.17 852 618.49C869.33 618.81 902.63 619.5 926 620.02C949.38 620.55 988.3 621.22 1012.5 621.52C1036.7 621.82 1075.63 622.48 1099 623C1122.38 623.52 1180.88 624.25 1229 624.62L1316.5 625.3C1330.48 619.07 1332.86 618.55 1341.5 618.18C1351.24 617.76 1351.71 617.84 1359.75 621.38C1367.11 624.61 1368.91 625 1376.5 625C1382.97 625 1386.13 624.5 1389.75 622.89C1392.36 621.74 1397.09 619.94 1400.25 618.89C1404.7 617.43 1407.53 617.14 1412.75 617.63C1416.66 617.99 1423.18 619.67 1428.25 621.63C1435.82 624.55 1438.18 625 1445.75 624.97C1451.75 624.96 1454.97 624.52 1456 623.57C1456.83 622.82 1460.88 621.21 1465 620C1469.52 618.67 1475.09 617.82 1479 617.85C1482.58 617.88 1486.85 618.33 1488.5 618.85C1490.15 619.37 1494.2 621.03 1497.5 622.54C1503.05 625.08 1504.21 625.25 1513 624.8C1520.61 624.4 1524.04 623.68 1530.25 621.15C1536.93 618.43 1539.2 618 1546.75 618.03C1554.65 618.05 1556.27 618.4 1563.5 621.69C1569.48 624.42 1573.26 625.45 1578.5 625.8C1584.79 626.22 1586.21 625.94 1592.5 623.07C1596.35 621.31 1601.3 619.46 1603.5 618.96C1605.7 618.46 1610.65 618.05 1614.5 618.04C1620.29 618.04 1622.97 618.66 1630 621.62C1636.3 624.27 1640.44 625.32 1646 625.69C1653.12 626.16 1653.97 625.98 1662.75 622.1C1670.61 618.62 1673.16 617.96 1679.75 617.75C1686.84 617.52 1688.27 617.83 1696.5 621.4C1702.86 624.16 1707.41 625.44 1712 625.77C1715.88 626.05 1720.11 625.72 1722.5 624.95C1724.7 624.24 1726.95 623.16 1727.5 622.54C1728.05 621.92 1730.3 620.91 1732.5 620.28C1734.7 619.65 1740.55 618.81 1745.5 618.42C1754.39 617.71 1754.61 617.75 1763.5 621.51C1769.76 624.16 1774.48 625.46 1779 625.77C1784.67 626.17 1786.72 625.77 1795 622.64C1803.5 619.43 1805.52 619.05 1814.25 619.02C1823.02 619 1824.73 619.32 1831.25 622.16C1836.29 624.35 1840.63 625.46 1845.5 625.78C1851.56 626.19 1853.17 625.92 1857.5 623.72C1860.25 622.33 1866.33 620.47 1871 619.58C1875.67 618.7 1881.41 617.98 1883.75 617.99C1886.21 617.99 1891.89 619.51 1897.25 621.59C1903.68 624.08 1908.79 625.34 1914 625.72C1921.03 626.24 1921.94 626.06 1928.5 622.89C1935.06 619.72 1936.25 619.49 1947.5 619.18C1959.39 618.86 1959.56 618.88 1966 622.16C1970.28 624.34 1974.38 625.61 1978 625.88C1981.46 626.14 1983.78 625.87 1984.25 625.15C1984.66 624.52 1985.79 624.01 1986.75 624.02C1987.71 624.04 1990.53 623.15 1993 622.05C1995.94 620.75 2001.31 619.75 2008.5 619.18C2014.55 618.69 2020.85 618.62 2022.5 619.01C2024.15 619.4 2028.42 620.98 2032 622.52C2036.87 624.62 2040.63 625.44 2047 625.79C2055 626.23 2055.94 626.05 2063 622.88C2070.05 619.71 2071.16 619.51 2081.5 619.5C2091.88 619.5 2092.92 619.69 2100 622.9C2106.64 625.91 2108.42 626.29 2115.5 626.19C2120.15 626.13 2123.6 625.65 2123.75 625.04C2123.89 624.47 2124.79 624 2125.75 623.99C2126.71 623.99 2128.85 623.29 2130.5 622.44C2132.15 621.59 2136.31 620.24 2139.75 619.45C2143.19 618.65 2148.03 618 2150.5 618C2153.68 618 2157.72 619.25 2164.25 622.25C2172.86 626.2 2174.09 626.5 2182 626.48C2189.57 626.45 2191.32 626.07 2198 622.98C2204.98 619.75 2206.19 619.5 2215.5 619.5C2224.73 619.5 2226.02 619.75 2232.25 622.75C2237.4 625.23 2240.48 626.04 2245.25 626.17C2248.69 626.26 2253.53 625.75 2256 625.03C2258.47 624.32 2261.4 623.35 2262.5 622.88C2263.6 622.41 2267.2 621.34 2270.5 620.51C2273.8 619.67 2279.2 618.99 2282.5 618.99C2285.8 618.98 2290.75 619.65 2293.5 620.48C2296.25 621.3 2300.75 623.11 2303.5 624.5C2306.4 625.97 2310.18 627.03 2312.5 627.02C2314.7 627.02 2319.2 626.52 2322.5 625.91C2325.99 625.28 2329.23 624.02 2330.25 622.91C2331.21 621.86 2334.14 620.67 2336.75 620.27C2339.36 619.86 2345.1 619.54 2349.5 619.53C2356.19 619.53 2358.97 620.09 2366.5 622.96C2374.03 625.83 2376.81 626.39 2383.5 626.39C2390.56 626.39 2392.33 625.99 2398.5 622.99C2404.4 620.13 2406.84 619.53 2414 619.21C2420.27 618.93 2423.68 619.27 2427 620.51C2429.47 621.43 2433.97 623.08 2437 624.18C2441.5 625.8 2444 626.06 2450.75 625.58C2455.29 625.26 2459.79 624.57 2460.75 624.05C2461.71 623.52 2465.43 622.07 2469 620.81C2473.89 619.09 2477.48 618.56 2483.5 618.66C2490.02 618.76 2492.98 619.38 2499.5 622.03C2505.46 624.45 2509.41 625.37 2515 625.62C2519.13 625.81 2524.3 625.49 2526.5 624.91C2528.7 624.33 2533.43 622.71 2537 621.3C2541.91 619.36 2545.33 618.73 2551 618.72C2555.13 618.72 2560.53 619.25 2563 619.92C2565.47 620.58 2568.85 622.11 2570.5 623.31C2573.39 625.42 2574.55 625.51 2601.5 625.84C2616.9 626.03 2663.7 625.67 2705.5 625.06C2747.3 624.44 2824.03 623.52 2876 623.01C2927.97 622.5 2986.7 621.61 3006.5 621.03C3026.3 620.45 3071.97 619.55 3108 619.02C3144.03 618.49 3217.6 617.29 3271.5 616.35C3347.35 615.02 3372.55 614.89 3383 615.76C3393.01 616.6 3399.73 617.82 3409 620.5C3415.88 622.49 3423.86 624.99 3426.75 626.05C3429.64 627.12 3437.96 630.99 3445.25 634.64C3458.11 641.08 3458.89 641.66 3471.84 654.39C3480.71 663.1 3487.05 670.35 3490.75 676C3493.81 680.67 3497.71 686.11 3499.41 688.09C3501.11 690.06 3505.88 696.31 3510 701.98C3514.74 708.49 3522.83 717.45 3532 726.33C3539.97 734.05 3549.04 741.97 3552.14 743.94C3555.24 745.9 3559.06 748.29 3560.64 749.25C3562.21 750.21 3565.53 752.31 3568 753.92C3570.47 755.54 3574.41 757.79 3576.75 758.93C3579.09 760.07 3583.14 761.93 3585.75 763.07C3588.36 764.21 3591.18 765.56 3592 766.06C3592.82 766.57 3596.2 768.39 3599.5 770.11C3602.8 771.83 3607.53 773.58 3610 773.99C3612.47 774.41 3621.25 776.12 3629.5 777.81C3637.75 779.49 3648.32 781.35 3653 781.94C3657.68 782.52 3666.45 783.01 3672.5 783.01C3678.55 783.01 3688.22 782.54 3694 781.95C3699.78 781.37 3709.68 779.77 3716 778.42C3722.32 777.06 3733.57 773.9 3741 771.41C3748.43 768.91 3760.04 764.08 3766.82 760.68C3773.59 757.28 3782.59 751.9 3786.82 748.72C3791.04 745.55 3797.84 739.92 3801.93 736.22C3806.02 732.53 3813.02 725.23 3817.5 720C3821.98 714.77 3828.14 707.13 3831.19 703C3834.24 698.88 3838.62 693.25 3840.91 690.5C3843.21 687.75 3847.1 681.56 3849.55 676.75C3852 671.94 3854 667.33 3854 666.5C3854 665.67 3855.52 661.51 3857.38 657.25C3859.24 652.99 3861.06 646.8 3861.43 643.5C3861.8 640.2 3862.55 634.58 3863.09 631C3863.64 627.42 3864.64 614.6 3865.31 602.5C3865.98 590.4 3866.26 575.33 3865.92 569C3865.59 562.67 3864.8 554.8 3864.18 551.5C3863.56 548.2 3860.62 538.98 3857.66 531C3854.7 523.02 3848.56 509.07 3844.01 500C3839.47 490.93 3833.22 479.69 3830.12 475.02C3826.92 470.2 3819.65 461.69 3813.25 455.27C3807.06 449.07 3796.6 439.73 3790 434.5C3783.4 429.27 3775.64 423.48 3772.75 421.63C3769.86 419.78 3762.55 415.79 3756.5 412.76C3750.45 409.73 3741 405.57 3735.5 403.52C3730 401.46 3720.78 398.73 3715 397.44C3709.22 396.15 3698.43 394.4 3691 393.54C3683.57 392.68 3671.65 391.8 3664.5 391.57C3657.35 391.34 3647.22 391.54 3642 392Z" />
</svg>